<svg width="36" height="18" viewBox="0 0 36 18" fill="none" xmlns="http://www.w3.org/2000/svg">
<path d="M35.1795 1.22014C35.4268 0.517012 35.1795 -0.000488281 33.99 -0.000488281H30.0536C29.0512 -0.000488281 28.5901 0.443887 28.3428 0.938887C28.3428 0.938887 26.3379 5.05076 23.5043 7.71701C22.5887 8.48764 22.1677 8.73514 21.6664 8.73514C21.4192 8.73514 21.0382 8.48764 21.0382 7.78451V1.22014C21.0382 0.376387 20.7575 -0.000488281 19.9288 -0.000488281H13.7403C13.1121 -0.000488281 12.7379 0.393262 12.7379 0.758887C12.7379 1.55764 14.1547 1.74326 14.3017 3.99326V8.87576C14.3017 9.94451 14.0745 10.1414 13.5733 10.1414C12.2367 10.1414 8.98869 6.01264 7.06398 1.28764C6.67636 0.370762 6.29543 -0.000488281 5.28629 -0.000488281H1.34997C0.227223 -0.000488281 0 0.443887 0 0.938887C0 1.81639 1.33661 6.17576 6.22191 11.9358C9.47656 15.8676 14.0611 17.9995 18.2313 17.9995C20.7375 17.9995 21.0449 17.527 21.0449 16.7114C21.0449 12.9539 20.8177 12.5995 22.0741 12.5995C22.6555 12.5995 23.658 12.847 25.997 14.7426C28.6703 16.9926 29.1113 17.9995 30.6083 17.9995H34.5447C35.6674 17.9995 36.2355 17.527 35.908 16.5933C35.1595 14.6301 30.1004 10.5914 29.8732 10.3214C29.2918 9.69139 29.4589 9.41014 29.8732 8.84764C29.8799 8.84201 34.685 3.14951 35.1795 1.22014Z" fill="#223455"/>
</svg>
