<svg width="19" height="19" viewBox="0 0 19 19" fill="none" xmlns="http://www.w3.org/2000/svg">
<path d="M0.00381271 18.1816L1.28821 13.7104C0.441893 12.336 -0.0027461 10.7728 1.27606e-05 9.18163C1.27606e-05 4.21094 4.25316 0.181641 9.50001 0.181641C14.7469 0.181641 19 4.21094 19 9.18163C19 14.1523 14.7469 18.1816 9.50001 18.1816C7.82115 18.1842 6.17183 17.7633 4.72151 16.9621L0.00381271 18.1816ZM6.07146 4.95884C5.94878 4.96605 5.8289 4.99667 5.71901 5.04884C5.61595 5.10412 5.52188 5.17324 5.43971 5.25404C5.32571 5.35574 5.26111 5.44394 5.19176 5.52944C4.84065 5.96233 4.65179 6.49371 4.65501 7.03964C4.65691 7.48064 4.77851 7.90994 4.96851 8.31133C5.35706 9.12313 5.99641 9.98263 6.84096 10.7791C7.04426 10.9708 7.24281 11.1634 7.45656 11.3425C8.50478 12.2168 9.7539 12.8474 11.1046 13.1839L11.6451 13.2622C11.8209 13.2712 11.9966 13.2586 12.1733 13.2505C12.45 13.237 12.7201 13.166 12.9647 13.0426C13.0891 12.9819 13.2105 12.9159 13.3285 12.8446C13.3285 12.8446 13.3694 12.8194 13.4473 12.7636C13.5755 12.6736 13.6544 12.6097 13.7608 12.5044C13.8396 12.427 13.908 12.3361 13.9603 12.2326C14.0344 12.0859 14.1085 11.806 14.1389 11.5729C14.1617 11.3947 14.155 11.2975 14.1522 11.2372C14.1484 11.1409 14.0638 11.041 13.9717 10.9987L13.4188 10.7638C13.4188 10.7638 12.5923 10.4227 12.0878 10.2049C12.0346 10.183 11.9776 10.1705 11.9197 10.168C11.8547 10.1617 11.789 10.1686 11.727 10.1884C11.6651 10.2081 11.6083 10.2401 11.5606 10.2823V10.2805C11.5558 10.2805 11.4922 10.3318 10.8053 11.1202C10.7659 11.1704 10.7116 11.2083 10.6493 11.2292C10.5871 11.25 10.5197 11.2528 10.4557 11.2372C10.3938 11.2216 10.3332 11.2017 10.2743 11.1778C10.1565 11.131 10.1156 11.113 10.0349 11.0797L10.0301 11.0779C9.48662 10.8531 8.98342 10.5495 8.53861 10.1779C8.41891 10.0789 8.30776 9.97093 8.19376 9.86653C7.82001 9.52745 7.49429 9.14385 7.22476 8.72534L7.16871 8.63983C7.12845 8.58238 7.0959 8.52041 7.07181 8.45533C7.03571 8.32304 7.12976 8.21684 7.12976 8.21684C7.12976 8.21684 7.36061 7.97744 7.46796 7.84784C7.55734 7.74012 7.64074 7.62807 7.71781 7.51214C7.82991 7.34114 7.86506 7.16564 7.80616 7.02974C7.54016 6.41414 7.26466 5.80124 6.98156 5.19284C6.92551 5.07224 6.75926 4.98584 6.60821 4.96874C6.55691 4.96334 6.50561 4.95794 6.45431 4.95434C6.32673 4.94833 6.19889 4.94953 6.07146 4.95794V4.95884Z" fill="#223455"/>
</svg>
