<svg width="55" height="55" viewBox="0 0 55 55" fill="none" xmlns="http://www.w3.org/2000/svg">
<path d="M47.6867 41.3359C47.1795 41.3359 46.8412 41.6797 46.8412 42.1952C46.8412 43.57 45.742 44.6873 44.3893 44.6873C43.0367 44.6873 41.9375 43.57 41.9375 42.1952C41.9375 41.6797 41.5992 41.3359 41.092 41.3359C41.0075 41.3359 37.6253 40.9921 35.6806 44.3435C34.6657 42.539 32.7215 41.3359 30.5229 41.3359H30.2691C29.7619 41.3359 29.4236 41.6797 29.4236 42.1952C29.4236 43.57 28.3244 44.6873 26.9718 44.6873C25.6191 44.6873 24.5199 43.57 24.5199 42.1952C24.5199 41.6797 24.1817 41.3359 23.6744 41.3359H23.4206C21.2222 41.3359 19.2778 42.539 18.263 44.3435C16.3182 40.992 12.9364 41.3359 12.8515 41.3359C12.3444 41.3359 12.0061 41.6797 12.0061 42.1952C12.0061 43.57 10.9069 44.6873 9.55421 44.6873C8.20157 44.6873 7.10234 43.57 7.10234 42.1952C7.10234 41.6797 6.76408 41.3359 6.25688 41.3359C6.17241 41.3359 0 41.4217 0 47.4374L0.000389255 54.1407C0.000389255 54.6562 0.338648 55 0.845853 55H53.2673C53.7745 55 54.1128 54.6562 54.1128 54.1407V47.5237C53.9435 41.4218 47.771 41.4218 47.6866 41.3359H47.6867ZM1.52216 47.5233C1.52216 45.2888 3.21311 43.3983 5.41157 43.1405C5.74983 45.0312 7.44073 46.4064 9.38549 46.4064C11.3302 46.4064 13.0211 45.0316 13.4439 43.1409C15.6424 43.3988 17.3333 45.2033 17.3333 47.5237V53.2814H14.712V50.2738C14.712 49.7583 14.3738 49.4145 13.8666 49.4145C13.3594 49.4145 13.0211 49.7583 13.0211 50.2738V53.2814H5.83431V50.2738C5.83431 49.7583 5.49605 49.4145 4.98884 49.4145C4.48165 49.4145 4.14338 49.7583 4.14338 50.2738V53.2814H1.5221L1.52216 47.5233ZM19.0246 47.5233C19.0246 45.2888 20.7155 43.3983 22.914 43.1405C23.3367 45.0312 24.9431 46.406 26.9724 46.406C28.9171 46.406 30.608 45.0312 31.0308 43.1405C33.2293 43.3984 34.9202 45.2029 34.9202 47.5233V53.2814H32.2989V50.2738C32.2989 49.7583 31.9607 49.4145 31.4535 49.4145C30.9463 49.4145 30.608 49.7583 30.608 50.2738V53.2814H23.4212V50.2738C23.4212 49.7583 23.0829 49.4145 22.5757 49.4145C22.0685 49.4145 21.7303 49.7583 21.7303 50.2738V53.2814H19.109V47.5233H19.0246ZM52.2536 53.2814H49.6323V50.2738C49.6323 49.7583 49.2941 49.4145 48.7869 49.4145C48.2797 49.4145 47.9414 49.7583 47.9414 50.2738V53.2814H40.7546V50.2738C40.7546 49.7583 40.4163 49.4145 39.9091 49.4145C39.4019 49.4145 39.0637 49.7583 39.0637 50.2738V53.2814H36.4424V47.5237C36.4424 45.2892 38.1333 43.3987 40.3318 43.1409C40.7545 45.0316 42.361 46.4064 44.3902 46.4064C46.335 46.4064 48.0258 45.0316 48.4486 43.1409C50.6471 43.3988 52.3381 45.2033 52.3381 47.5237V53.2814H52.2536Z" fill="#404040"/>
<path d="M39.4854 37.1246C39.4854 39.8746 41.6838 42.1088 44.3892 42.1088C47.0949 42.1088 49.293 39.8743 49.293 37.1246C49.293 34.3746 47.0946 32.1404 44.3892 32.1404C41.6835 32.14 39.4854 34.3746 39.4854 37.1246ZM47.6021 37.1246C47.6021 38.9291 46.1645 40.3902 44.3892 40.3902C42.6138 40.3902 41.1763 38.9291 41.1763 37.1246C41.1763 35.3202 42.6138 33.859 44.3892 33.859C46.1645 33.859 47.6021 35.3198 47.6021 37.1246Z" fill="#404040"/>
<path d="M21.9829 37.1246C21.9829 39.8746 24.1814 42.1088 26.8868 42.1088C29.5924 42.1088 31.7906 39.8743 31.7906 37.1246C31.7906 34.3746 29.5921 32.1404 26.8868 32.1404C24.1811 32.14 21.9829 34.3746 21.9829 37.1246ZM26.8868 33.859C28.6621 33.859 30.0996 35.3202 30.0996 37.1246C30.0996 38.9291 28.6621 40.3902 26.8868 40.3902C25.1114 40.3902 23.6739 38.9291 23.6739 37.1246C23.6739 35.3198 25.1114 33.859 26.8868 33.859Z" fill="#404040"/>
<path d="M9.38431 42.1086C12.09 42.1086 14.2881 39.8741 14.2881 37.1244C14.2881 34.3743 12.0897 32.1401 9.38431 32.1401C6.67863 32.1397 4.48047 34.3743 4.48047 37.1244C4.48047 39.8744 6.67863 42.1086 9.38431 42.1086ZM9.38431 33.8588C11.1597 33.8588 12.5972 35.3199 12.5972 37.1244C12.5972 38.9288 11.1601 40.3899 9.38431 40.3899C7.60896 40.3899 6.17142 38.9288 6.17142 37.1244C6.17142 35.3195 7.60896 33.8588 9.38431 33.8588Z" fill="#404040"/>
<path d="M27.1413 32.1405C27.6485 32.1405 27.9868 31.7967 27.9868 31.2812V24.1483L28.2406 24.4062C28.5788 24.75 29.086 24.75 29.4243 24.4062C29.7626 24.0624 29.7626 23.5469 29.4243 23.2031L27.7334 21.4844C27.3951 21.1406 26.8879 21.1406 26.5496 21.4844L24.8587 23.2031C24.5204 23.5469 24.5204 24.0624 24.8587 24.4062C25.1969 24.75 25.7041 24.75 26.0424 24.4062L26.2962 24.1483V31.2812C26.2958 31.7109 26.6337 32.1405 27.1413 32.1405H27.1413Z" fill="#404040"/>
<path d="M39.3162 14.265C39.57 14.6947 40.0772 14.7805 40.5 14.4367C40.9227 14.1788 41.0072 13.6633 40.6689 13.2336L40.4155 12.8902C42.1908 13.5778 43.4595 15.2106 43.4595 17.1009V30.6789C43.4595 31.1944 43.7977 31.5382 44.3049 31.5382C44.8121 31.5382 45.1504 31.1944 45.1504 30.6789V17.1009C45.1504 14.4367 43.3751 12.1167 40.8383 11.2574L41.0921 11.0857C41.5148 10.8277 41.5993 10.3122 41.3459 9.88255C41.0921 9.45288 40.5849 9.36704 40.1621 9.62459L37.9637 10.9994C37.7947 11.0853 37.6254 11.3432 37.541 11.6008C37.4565 11.8587 37.5409 12.1163 37.7099 12.2884L39.3162 14.265Z" fill="#404040"/>
<path d="M9.38447 31.797C9.89166 31.797 10.2299 31.4532 10.2299 30.9377V17.2736C10.2299 15.3829 11.4982 13.7501 13.3584 13.0629L13.1046 13.4925C12.8508 13.9222 12.9357 14.4377 13.3584 14.6957C13.7812 14.9536 14.2883 14.8674 14.5422 14.4377L15.9797 12.3753C16.1486 12.2036 16.1486 11.9456 16.1486 11.6877C16.0642 11.4297 15.9797 11.258 15.7259 11.1722L13.5274 9.88314C13.1047 9.62518 12.5975 9.79729 12.3437 10.2269C12.0899 10.6566 12.2592 11.1721 12.682 11.4301L12.9358 11.6018C10.4839 12.547 8.70804 14.7816 8.70804 17.4453V30.9372C8.5391 31.3672 8.96183 31.7969 9.38456 31.7969L9.38447 31.797Z" fill="#404040"/>
<path d="M17.8396 12.2029L19.6999 12.4608C19.7843 12.7188 19.8688 12.9764 20.0381 13.2343L18.8544 14.7812C18.6006 15.125 18.6006 15.6405 18.9389 15.8985L20.968 17.9609C21.3063 18.3047 21.729 18.3047 22.0672 18.0467L23.5892 16.8436C23.843 16.9294 24.0964 17.1015 24.3502 17.1874L24.604 19.0781C24.6884 19.5078 25.0267 19.8516 25.4494 19.8516H28.2396C28.6624 19.8516 29.0006 19.5078 29.0851 19.0781L29.423 17.1874C29.6768 17.1015 29.9301 17.0157 30.1839 16.8436L31.7059 18.0467C32.0441 18.3047 32.5514 18.3047 32.8051 17.9609L34.8343 15.8985C35.1725 15.5546 35.1725 15.125 34.9187 14.7812L33.735 13.2343C33.8195 12.9764 33.9888 12.7188 34.0733 12.4608L35.9335 12.2029C36.3563 12.117 36.6945 11.7732 36.6945 11.3436V8.50764C36.6945 8.07798 36.3563 7.73418 35.9335 7.64832L34.0733 7.39036C33.9888 7.1324 33.9043 6.87485 33.735 6.61689L34.9187 5.07C35.1725 4.7262 35.1725 4.21068 34.8343 3.95275L32.8051 1.89073C32.4669 1.54693 32.0441 1.54693 31.7059 1.80488L30.1839 3.00802C29.9301 2.92217 29.6768 2.75006 29.423 2.66421L29.1692 0.773467C29.0847 0.343805 28.7464 0 28.3237 0H25.5335C25.1108 0 24.7725 0.343805 24.688 0.773467L24.3502 2.66421C24.0964 2.75007 23.843 2.83592 23.5892 3.00802L22.0672 1.80488C21.729 1.54692 21.2218 1.54692 20.968 1.89073L18.9389 3.95316C18.6006 4.29696 18.6006 4.72662 18.8544 5.07041L20.0381 6.6173C19.9536 6.87526 19.7843 7.13281 19.6999 7.39077L17.8396 7.64872C17.4169 7.73458 17.0786 8.07839 17.0786 8.50805V11.344C17.1635 11.7732 17.4169 12.2029 17.8396 12.2029ZM18.8544 9.28108L20.5454 9.02312C20.8836 8.93727 21.137 8.76517 21.2219 8.42176C21.3908 7.90625 21.5602 7.47658 21.8136 6.96065C21.9825 6.70269 21.9825 6.27303 21.7291 6.01548L20.7143 4.64066L21.6442 3.69549L22.9968 4.72696C23.2506 4.89866 23.6734 4.98491 23.9268 4.81281C24.3495 4.55485 24.8567 4.38315 25.3643 4.21144C25.7026 4.12559 25.956 3.86764 25.956 3.52382L26.2098 1.80516H27.5624L27.8162 3.52382C27.9007 3.86763 28.07 4.12519 28.4079 4.21144C28.9159 4.2969 29.4231 4.55446 29.8458 4.81242C30.0996 4.98412 30.5224 4.98412 30.7757 4.72656L32.1284 3.6951L33.0583 4.64027L32.0443 6.01549C31.8753 6.27344 31.7905 6.70311 31.9598 6.96066C32.2136 7.39032 32.3825 7.90583 32.5515 8.42177C32.636 8.76557 32.8897 9.02313 33.228 9.02313L34.919 9.28109V10.6559L33.228 10.9139C32.8898 10.9997 32.6363 11.1718 32.5515 11.5152C32.467 12.0311 32.2132 12.4608 31.9598 12.8904C31.7909 13.1484 31.7909 13.5781 32.0443 13.8356L33.0591 15.2104L32.1292 16.1556L30.7765 15.1241C30.5227 14.9524 30.1 14.8662 29.8466 15.0383C29.4239 15.2962 28.9167 15.4679 28.4091 15.6397C28.0708 15.7255 27.8174 15.9835 27.8174 16.3273L27.5636 18.0459H26.211L25.9572 16.3273C25.8727 15.9835 25.7034 15.7259 25.3655 15.6397C24.8583 15.4679 24.4356 15.2958 23.928 15.0383C23.6742 14.8666 23.2514 14.8666 22.998 15.1241L21.6454 16.1556L20.7155 15.2104L21.7303 13.8356C21.8992 13.5777 21.9841 13.148 21.8148 12.8904C21.561 12.4608 21.392 11.9453 21.2231 11.4293C21.1386 11.0855 20.8848 10.828 20.5466 10.828L18.8556 10.57L18.8544 9.28108Z" fill="#404040"/>
<path d="M26.8869 14.179C29.1699 14.179 31.1146 12.2883 31.1146 9.88199C31.1146 7.47571 29.2544 5.58496 26.8869 5.58496C24.6039 5.58496 22.6592 7.47571 22.6592 9.88199C22.6592 12.2883 24.6039 14.179 26.8869 14.179ZM26.8869 7.38992C28.2395 7.38992 29.4233 8.50717 29.4233 9.96787C29.4233 11.429 28.324 12.5458 26.8869 12.5458C25.5343 12.5458 24.3505 11.4286 24.3505 9.96787C24.3505 8.50717 25.5343 7.38992 26.8869 7.38992Z" fill="#404040"/>
</svg>
