<svg width="55" height="55" viewBox="0 0 55 55" fill="none" xmlns="http://www.w3.org/2000/svg">
<path d="M21.8212 13.5045H28.7971C29.3336 13.5045 29.6914 13.149 29.6914 12.616L29.6909 4.70806C29.6909 4.17506 29.3332 3.81958 28.7967 3.81958H21.8208C21.2843 3.81958 20.9265 4.17505 20.9265 4.70806V12.616C20.9269 13.0603 21.2843 13.5045 21.8212 13.5045ZM22.7155 5.59696H27.9024V11.7279H22.7155V5.59696Z" fill="#404040"/>
<path d="M21.8213 18.3919H42.6591C43.1956 18.3919 43.5534 18.0365 43.5534 17.5035C43.5534 16.9705 43.1956 16.615 42.6591 16.615H21.8213C21.2848 16.615 20.927 16.9705 20.927 17.5035C20.927 18.0365 21.2844 18.3919 21.8213 18.3919Z" fill="#404040"/>
<path d="M21.8213 23.545H42.6591C43.1956 23.545 43.5534 23.1896 43.5534 22.6565C43.5534 22.1235 43.1956 21.7681 42.6591 21.7681H21.8213C21.2848 21.7681 20.927 22.1235 20.927 22.6565C20.927 23.19 21.2844 23.545 21.8213 23.545Z" fill="#404040"/>
<path d="M31.8364 6.92954H42.658C43.1944 6.92954 43.5522 6.57408 43.5522 6.04107C43.5522 5.50807 43.1945 5.15259 42.658 5.15259H31.8364C31.2999 5.15259 30.9421 5.50806 30.9421 6.04107C30.9421 6.57407 31.2999 6.92954 31.8364 6.92954Z" fill="#404040"/>
<path d="M31.8364 12.1715H42.658C43.1944 12.1715 43.5522 11.816 43.5522 11.283C43.5522 10.75 43.1945 10.3945 42.658 10.3945H31.8364C31.2999 10.3945 30.9421 10.75 30.9421 11.283C30.9421 11.816 31.2999 12.1715 31.8364 12.1715Z" fill="#404040"/>
<path d="M52.317 39.4498L54.4633 27.3663C54.5527 27.0996 54.4633 26.8333 54.2846 26.6553C54.1059 26.4778 53.8375 26.2999 53.569 26.2999H50.0813V17.9477C50.0813 17.4147 49.7235 17.0592 49.187 17.0592H47.6665V0.888478C47.6665 0.355479 47.3087 0 46.7722 0H16.9025C16.3661 0 16.0083 0.355469 16.0083 0.888478V14.6611L10.8213 9.6853C10.6427 9.50777 10.4636 9.41859 10.1955 9.41859L0.894268 9.419C0.357796 9.419 0 9.77447 0 10.3075V51.8904C0 52.3346 0.357785 52.8676 0.894268 52.8676H39.7073C41.3171 54.2004 43.3741 55 45.6992 55C50.7967 55 55 50.8239 55 45.7594C54.9107 43.3607 53.927 41.0503 52.3172 39.4509L52.317 39.4498ZM50.7072 38.117C49.2765 37.1398 47.4875 36.6064 45.6097 36.6064C40.5122 36.6064 36.3089 40.7825 36.3089 45.847C36.3089 47.8019 36.9347 49.6676 38.008 51.0894H1.96705L7.5117 28.2544C27.187 28.1656 32.4634 28.1656 52.496 28.0769L50.7072 38.117ZM48.2925 18.9252V26.3888H47.6667V18.9252H48.2925ZM17.7967 1.77639H45.8788V26.3885C32.7321 26.4773 23.7898 26.4773 17.7967 26.4773V1.77639ZM9.83717 11.2837L16.0081 17.2368V26.5662H6.88593C6.4388 26.5662 5.99166 27.0105 5.99166 27.4547L1.78836 44.6035V11.284L9.83717 11.2837ZM45.6094 53.3117C41.4955 53.3117 38.0971 49.9353 38.0971 45.848C38.0971 41.7607 41.4955 38.3844 45.6094 38.3844C49.7233 38.3844 53.1217 41.7607 53.1217 45.848C53.1217 49.9349 49.8126 53.3117 45.6094 53.3117Z" fill="#404040"/>
<path d="M48.6501 42.4709L44.0891 47.0025L42.6583 45.5806C42.3006 45.2251 41.7641 45.2251 41.4063 45.5806C41.0485 45.936 41.0485 46.4691 41.4063 46.8245L43.4633 48.8682C43.642 49.0458 43.9104 49.1349 44.0891 49.1349C44.2678 49.1349 44.5362 49.0462 44.7149 48.8682L49.9018 43.7149C50.2596 43.3594 50.2596 42.8264 49.9018 42.4709C49.5445 42.1155 49.008 42.1155 48.6502 42.4709H48.6501Z" fill="#404040"/>
</svg>
