<svg width="38" height="55" viewBox="0 0 38 55" fill="none" xmlns="http://www.w3.org/2000/svg">
<path d="M37.0364 10.1064L27.215 0.285013C27.03 0.100865 26.7787 -0.00130076 26.5179 1.25057e-05H0.982143C0.439775 1.25057e-05 0 0.439788 0 0.982155V54.0179C0 54.2783 0.103476 54.5282 0.287627 54.7124C0.471779 54.8965 0.721701 55 0.982143 55H36.3393C36.5997 55 36.8496 54.8965 37.0338 54.7124C37.2179 54.5282 37.3214 54.2783 37.3214 54.0179V10.8036C37.3227 10.5427 37.2206 10.2915 37.0364 10.1064ZM27.5 3.34896L33.9725 9.82145H27.5V3.34896ZM1.96427 53.0353V1.96386H25.5357V10.8031C25.5357 11.0636 25.6392 11.3135 25.8233 11.4977C26.0075 11.6818 26.2574 11.7853 26.5178 11.7853H35.3571V53.0353H1.96427Z" fill="#404040"/>
<path d="M30.4461 29.4644H6.87472C6.33235 29.4644 5.89258 29.9041 5.89258 30.4465C5.89258 30.9889 6.33235 31.4286 6.87472 31.4286H30.4461C30.9885 31.4286 31.4283 30.9889 31.4283 30.4465C31.4283 29.9041 30.9885 29.4644 30.4461 29.4644Z" fill="#404040"/>
<path d="M30.4461 23.5715H6.87472C6.33235 23.5715 5.89258 24.0113 5.89258 24.5537C5.89258 25.096 6.33235 25.5358 6.87472 25.5358H30.4461C30.9885 25.5358 31.4283 25.096 31.4283 24.5537C31.4283 24.0113 30.9885 23.5715 30.4461 23.5715Z" fill="#404040"/>
<path d="M30.4461 17.6785H6.87472C6.33235 17.6785 5.89258 18.1182 5.89258 18.6606C5.89258 19.203 6.33235 19.6428 6.87472 19.6428H30.4461C30.9885 19.6428 31.4283 19.203 31.4283 18.6606C31.4283 18.1182 30.9885 17.6785 30.4461 17.6785Z" fill="#404040"/>
<path d="M6.87472 13.7499H20.6247C21.1671 13.7499 21.6069 13.3102 21.6069 12.7678C21.6069 12.2254 21.1671 11.7856 20.6247 11.7856H6.87472C6.33235 11.7856 5.89258 12.2254 5.89258 12.7678C5.89258 13.3102 6.33235 13.7499 6.87472 13.7499Z" fill="#404040"/>
<path d="M28.4827 41.2498H24.5541C24.1845 41.2512 23.8465 41.4599 23.6799 41.79L23.0612 43.0178L22.5798 40.0713H22.5802C22.5179 39.6811 22.2281 39.3659 21.8445 39.2716C21.4608 39.1773 21.0579 39.322 20.822 39.639L18.1702 43.2142H16.697C16.1546 43.2142 15.7148 43.654 15.7148 44.1964C15.7148 44.7387 16.1546 45.1785 16.697 45.1785H18.6613C18.9704 45.1785 19.2615 45.0329 19.447 44.7857L21.0184 42.6938L21.6077 46.3176C21.6761 46.7376 22.0067 47.066 22.4276 47.1309C22.8481 47.1958 23.2624 46.9827 23.454 46.6026L25.1632 43.2141H28.4827C29.0251 43.2141 29.4649 42.7744 29.4649 42.232C29.4649 41.6896 29.0251 41.2498 28.4827 41.2498H28.4827Z" fill="#404040"/>
<path d="M30.4461 35.3569H6.87472C6.33235 35.3569 5.89258 35.7967 5.89258 36.3391C5.89258 36.8814 6.33235 37.3212 6.87472 37.3212H30.4461C30.9885 37.3212 31.4283 36.8814 31.4283 36.3391C31.4283 35.7967 30.9885 35.3569 30.4461 35.3569Z" fill="#404040"/>
<path d="M12.7676 41.2498H6.87472C6.33235 41.2498 5.89258 41.6895 5.89258 42.2319C5.89258 42.7743 6.33235 43.214 6.87472 43.214H12.7676C13.3099 43.214 13.7497 42.7743 13.7497 42.2319C13.7497 41.6895 13.3099 41.2498 12.7676 41.2498Z" fill="#404040"/>
</svg>
