<svg width="62" height="56" viewBox="0 0 62 56" fill="none" xmlns="http://www.w3.org/2000/svg">
<path d="M15.1788 7.90894H5.82769C5.56328 7.90841 5.30948 8.01353 5.12206 8.20043C4.93516 8.38785 4.83004 8.64165 4.83057 8.90659V15.4479C4.83004 15.7123 4.93517 15.9661 5.12206 16.1535C5.30948 16.3404 5.56328 16.4456 5.82769 16.445H15.1788C15.4438 16.4456 15.6976 16.3404 15.885 16.1535C16.0719 15.9661 16.177 15.7123 16.1765 15.4479V8.90659C16.177 8.64165 16.0719 8.38785 15.885 8.20043C15.6976 8.01353 15.4438 7.90841 15.1788 7.90894ZM6.82537 9.90375H9.50143V14.4561H6.82537V9.90375ZM14.1859 14.4561H11.5098V9.90375H14.1859V14.4561Z" fill="#404040"/>
<path d="M28.2721 7.90894H18.921C18.6561 7.90841 18.4023 8.01353 18.2154 8.20043C18.0279 8.38785 17.9228 8.64165 17.9233 8.90659V15.4479C17.9228 15.7123 18.0279 15.9661 18.2154 16.1535C18.4023 16.3404 18.6561 16.4456 18.921 16.445H28.2721C28.5371 16.4456 28.7909 16.3404 28.9778 16.1535C29.1652 15.9661 29.2703 15.7123 29.2698 15.4479V8.90659C29.2703 8.64165 29.1652 8.38785 28.9778 8.20043C28.7909 8.01353 28.5371 7.90841 28.2721 7.90894ZM19.917 9.90429H22.5931V14.4561H19.917V9.90429ZM27.2686 14.4561H24.5925V9.90375H27.2686V14.4561Z" fill="#404040"/>
<path d="M15.1788 23.7308H5.82769C5.56327 23.7308 5.30948 23.8354 5.12258 24.0223C4.93569 24.2091 4.83057 24.4624 4.83057 24.7268V31.2681C4.83057 31.5326 4.93569 31.7864 5.12258 31.9733C5.30947 32.1601 5.56327 32.2647 5.82769 32.2642H15.1788C15.4432 32.2647 15.697 32.1601 15.8845 31.9733C16.0713 31.7864 16.1765 31.5326 16.1765 31.2681V24.73C16.1775 24.465 16.0724 24.2107 15.8855 24.0233C15.6981 23.8358 15.4438 23.7307 15.1788 23.7307V23.7308ZM6.82537 25.7245H9.50143V30.2768H6.82537V25.7245ZM14.1859 30.2768H11.5098V25.7245H14.1859V30.2768Z" fill="#404040"/>
<path d="M28.2721 23.7308H18.921C18.6566 23.7308 18.4028 23.8354 18.2159 24.0223C18.0285 24.2091 17.9233 24.4624 17.9233 24.7268V31.2681C17.9233 31.5326 18.0285 31.7864 18.2159 31.9733C18.4028 32.1601 18.6566 32.2647 18.921 32.2642H28.2721C28.5365 32.2647 28.7903 32.1601 28.9772 31.9733C29.1647 31.7864 29.2698 31.5326 29.2698 31.2681V24.73C29.2703 24.465 29.1657 24.2107 28.9783 24.0233C28.7914 23.8358 28.5371 23.7307 28.2721 23.7307V23.7308ZM19.917 25.7245H22.5931V30.2768H19.917V25.7245ZM27.2686 30.2768H24.5925V25.7245H27.2686V30.2768Z" fill="#404040"/>
<path d="M15.1788 39.5493H5.82769C5.56328 39.5488 5.30948 39.6539 5.12206 39.8413C4.93516 40.0282 4.83004 40.282 4.83057 40.547V47.0883C4.83004 47.3532 4.93517 47.607 5.12206 47.7939C5.30948 47.9813 5.56328 48.0865 5.82769 48.0859H15.1788C15.4438 48.0865 15.6976 47.9813 15.885 47.7939C16.0719 47.607 16.177 47.3532 16.1765 47.0883V40.547C16.177 40.282 16.0719 40.0282 15.885 39.8413C15.6976 39.6539 15.4438 39.5488 15.1788 39.5493ZM6.82537 41.543H9.50143V46.0954H6.82537V41.543ZM14.1859 46.0954H11.5098V41.543H14.1859V46.0954Z" fill="#404040"/>
<path d="M28.2721 39.5493H18.921C18.6561 39.5488 18.4023 39.6539 18.2154 39.8413C18.0279 40.0282 17.9228 40.282 17.9233 40.547V47.0883C17.9228 47.3532 18.0279 47.607 18.2154 47.7939C18.4023 47.9813 18.6561 48.0865 18.921 48.0859H28.2721C28.5371 48.0865 28.7909 47.9813 28.9778 47.7939C29.1652 47.607 29.2703 47.3532 29.2698 47.0883V40.547C29.2703 40.282 29.1652 40.0282 28.9778 39.8413C28.7909 39.6539 28.5371 39.5488 28.2721 39.5493ZM19.917 41.543H22.5931V46.0954H19.917V41.543ZM27.2686 46.0954H24.5925V41.543H27.2686V46.0954Z" fill="#404040"/>
<path d="M60.3799 15.9762H34.1073V0.996064C34.1073 0.731652 34.0021 0.477855 33.8152 0.29096C33.6278 0.104065 33.374 -0.000528091 33.1096 2.0113e-06H0.997653C0.73324 -0.000528906 0.479443 0.104068 0.292548 0.29096C0.105123 0.477855 0 0.731652 0 0.996064V55.0039C0 55.2683 0.105128 55.5221 0.292548 55.709C0.479443 55.8959 0.73324 56.0005 0.997653 56H60.3799C60.6444 56.0005 60.8982 55.8959 61.085 55.709C61.2719 55.5221 61.3771 55.2683 61.3771 55.0039V16.9725C61.3771 16.7081 61.2719 16.4543 61.085 16.2674C60.8982 16.0805 60.6444 15.9759 60.3799 15.9765L60.3799 15.9762ZM1.9953 1.99374H32.1065V54.0063H1.9953V1.99374ZM59.3809 54.0063H34.1073V17.9702H59.3809V54.0063Z" fill="#404040"/>
<path d="M37.7012 29.8349H44.7156C44.98 29.8349 45.2338 29.7297 45.4207 29.5429C45.6081 29.356 45.7132 29.1022 45.7132 28.8372V23.5001C45.7132 23.2356 45.6081 22.9818 45.4207 22.7949C45.2338 22.6081 44.98 22.5029 44.7156 22.5029H37.7012C37.4368 22.5024 37.183 22.6075 36.9956 22.7944C36.8087 22.9818 36.7036 23.2356 36.7041 23.5001V28.8372C36.7036 29.1022 36.8087 29.356 36.9956 29.5434C37.183 29.7303 37.4368 29.8354 37.7012 29.8349ZM38.6989 24.4962H43.718V27.8412H38.6989V24.4962Z" fill="#404040"/>
<path d="M48.7677 29.8349H55.7816C56.046 29.8349 56.2998 29.7297 56.4867 29.5429C56.6731 29.3554 56.7782 29.1016 56.7777 28.8372V23.5001C56.7782 23.2356 56.6731 22.9818 56.4867 22.7949C56.2998 22.6081 56.046 22.5029 55.7816 22.5029H48.7677C48.5027 22.5024 48.2489 22.6075 48.0615 22.7944C47.8746 22.9818 47.7695 23.2356 47.77 23.5001V28.8372C47.7695 29.1022 47.8746 29.356 48.0615 29.5434C48.2489 29.7303 48.5027 29.8354 48.7677 29.8349ZM49.7637 24.4962H54.7845V27.8412H49.7637V24.4962Z" fill="#404040"/>
<path d="M37.7012 39.654H44.7156C44.98 39.654 45.2338 39.5488 45.4207 39.362C45.6081 39.1751 45.7132 38.9213 45.7132 38.6563V33.3191C45.7132 33.0547 45.6081 32.8009 45.4207 32.614C45.2338 32.4271 44.98 32.322 44.7156 32.322H37.7012C37.4368 32.3215 37.183 32.4266 36.9956 32.6135C36.8087 32.8009 36.7036 33.0547 36.7041 33.3191V38.6563C36.7036 38.9213 36.8087 39.1751 36.9956 39.3625C37.183 39.5494 37.4368 39.6545 37.7012 39.654ZM38.6989 34.3153H43.718V37.6635H38.6989V34.3153Z" fill="#404040"/>
<path d="M48.7677 39.654H55.7816C56.046 39.654 56.2998 39.5488 56.4867 39.362C56.6731 39.1745 56.7782 38.9207 56.7777 38.6563V33.3191C56.7782 33.0547 56.6731 32.8009 56.4867 32.614C56.2998 32.4271 56.046 32.322 55.7816 32.322H48.7677C48.5027 32.3215 48.2489 32.4266 48.0615 32.6135C47.8746 32.8009 47.7695 33.0547 47.77 33.3191V38.6563C47.7695 38.9213 47.8746 39.1751 48.0615 39.3625C48.2489 39.5494 48.5027 39.6545 48.7677 39.654ZM49.7637 34.3153H54.7845L54.7839 37.6635H49.7637L49.7637 34.3153Z" fill="#404040"/>
<path d="M37.7012 49.4733H44.7156C44.98 49.4733 45.2338 49.3682 45.4207 49.1813C45.6081 48.9944 45.7132 48.7406 45.7132 48.4757V43.1385C45.7132 42.8741 45.6081 42.6203 45.4207 42.4334C45.2338 42.2465 44.98 42.1414 44.7156 42.1414H37.7012C37.4368 42.1408 37.183 42.246 36.9956 42.4328C36.8087 42.6203 36.7036 42.8741 36.7041 43.1385V48.4757C36.7036 48.7406 36.8087 48.9944 36.9956 49.1818C37.183 49.3687 37.4368 49.4738 37.7012 49.4733ZM38.6989 44.1346H43.718V47.4754H38.6989V44.1346Z" fill="#404040"/>
<path d="M48.7677 49.4733H55.7816C56.046 49.4733 56.2998 49.3682 56.4867 49.1813C56.6731 48.9939 56.7782 48.7401 56.7777 48.4757V43.1385C56.7782 42.8741 56.6731 42.6203 56.4867 42.4334C56.2998 42.2465 56.046 42.1414 55.7816 42.1414H48.7677C48.5027 42.1408 48.2489 42.246 48.0615 42.4328C47.8746 42.6203 47.7695 42.8741 47.77 43.1385V48.4757C47.7695 48.7406 47.8746 48.9944 48.0615 49.1818C48.2489 49.3687 48.5027 49.4738 48.7677 49.4733ZM49.7637 44.1346H54.7845L54.7839 47.4754H49.7637L49.7637 44.1346Z" fill="#404040"/>
</svg>
