<svg width="48" height="56" viewBox="0 0 48 56" fill="none" xmlns="http://www.w3.org/2000/svg">
<path d="M23.5172 19.0387H24.8239V20.3454C24.8239 20.89 25.0402 21.4121 25.4252 21.7975C25.8106 22.1825 26.3327 22.3988 26.8773 22.3988H29.1174C29.662 22.3988 30.1841 22.1825 30.5695 21.7975C30.9545 21.4121 31.1708 20.89 31.1708 20.3454V19.0387H32.4775C33.0221 19.0387 33.5442 18.8224 33.9296 18.4374C34.3146 18.052 34.5308 17.5299 34.5308 16.9853V14.7452C34.5308 14.2006 34.3146 13.6785 33.9296 13.2931C33.5441 12.9081 33.022 12.6919 32.4775 12.6919H31.1708V11.3852C31.1708 10.8406 30.9545 10.3185 30.5695 9.93306C30.1841 9.54804 29.662 9.33179 29.1174 9.33179H26.8773C26.3327 9.33179 25.8106 9.54804 25.4252 9.93306C25.0402 10.3185 24.8239 10.8406 24.8239 11.3852V12.6919H23.5172C22.9726 12.6919 22.4505 12.9081 22.0651 13.2931C21.6801 13.6786 21.4639 14.2007 21.4639 14.7452V16.9853C21.4639 17.5299 21.6801 18.052 22.0651 18.4374C22.4506 18.8224 22.9727 19.0387 23.5172 19.0387ZM23.3306 14.7452C23.3306 14.6423 23.4143 14.5585 23.5172 14.5585H25.7573C26.0048 14.5585 26.2423 14.4602 26.4173 14.2852C26.5923 14.1102 26.6907 13.8727 26.6907 13.6252V11.3851C26.6907 11.2822 26.7744 11.1984 26.8773 11.1984H29.1174C29.167 11.1984 29.2145 11.218 29.2495 11.253C29.2845 11.288 29.3041 11.3355 29.3041 11.3851V13.6252C29.3041 13.8727 29.4024 14.1102 29.5774 14.2852C29.7524 14.4602 29.99 14.5585 30.2375 14.5585H32.4775C32.5271 14.5585 32.5746 14.5781 32.6096 14.6131C32.6446 14.6481 32.6642 14.6956 32.6642 14.7452V16.9853C32.6642 17.0349 32.6446 17.0824 32.6096 17.1174C32.5746 17.1524 32.5271 17.172 32.4775 17.172H30.2375C29.722 17.172 29.3041 17.5899 29.3041 18.1053V20.3454C29.3041 20.395 29.2845 20.4425 29.2495 20.4775C29.2145 20.5125 29.167 20.5321 29.1174 20.5321H26.8773C26.7744 20.5321 26.6907 20.4483 26.6907 20.3454V18.1053C26.6907 17.8578 26.5923 17.6203 26.4173 17.4453C26.2423 17.2703 26.0048 17.172 25.7573 17.172H23.5172C23.4143 17.172 23.3306 17.0882 23.3306 16.9853V14.7452Z" fill="#404040"/>
<path d="M11.8076 24.2922C12.0668 24.7381 12.6385 24.8893 13.0848 24.6301C13.5306 24.371 13.6819 23.7993 13.4223 23.3534C12.176 21.1942 11.2718 18.8545 10.7426 16.4181C10.6305 15.916 10.133 15.5998 9.63091 15.7106C9.12839 15.8214 8.81046 16.3177 8.92005 16.8206C9.4909 19.4452 10.4651 21.9658 11.8076 24.2921V24.2922Z" fill="#404040"/>
<path d="M10.2632 13.065C10.2632 13.5804 9.84528 13.9983 9.32985 13.9983C8.81442 13.9983 8.39648 13.5804 8.39648 13.065C8.39648 12.5495 8.81442 12.1316 9.32985 12.1316C9.84528 12.1316 10.2632 12.5495 10.2632 13.065Z" fill="#404040"/>
<path d="M46.8155 12.136C46.3038 12.0881 45.8488 12.4598 45.7934 12.9706C45.5738 15.4844 44.9901 17.9529 44.06 20.2983C43.8675 20.7763 44.0988 21.3204 44.5767 21.513C45.0551 21.7059 45.5988 21.4746 45.7918 20.9967C46.7876 18.4871 47.4139 15.8461 47.651 13.1564C47.7015 12.6439 47.3277 12.1877 46.8156 12.136H46.8155Z" fill="#404040"/>
<path d="M44.312 23.8228C44.312 24.3382 43.8941 24.7561 43.3787 24.7561C42.8632 24.7561 42.4453 24.3382 42.4453 23.8228C42.4453 23.3073 42.8632 22.8894 43.3787 22.8894C43.8941 22.8894 44.312 23.3073 44.312 23.8228Z" fill="#404040"/>
<path d="M43.9271 6.26814C43.8975 5.71855 43.6242 5.21061 43.1812 4.88389C42.7383 4.55679 42.1724 4.4447 41.6387 4.57804C36.0927 5.91355 31.1633 2.16964 29.3044 0.499185C28.9464 0.177926 28.4823 0 28.0014 0C27.5206 0 27.0564 0.177926 26.6984 0.499185C24.8242 2.16633 19.8606 5.91355 14.3588 4.5806C13.8255 4.45727 13.265 4.57352 12.8246 4.89812C12.3841 5.22313 12.1079 5.72439 12.0683 6.27021C11.4887 14.5305 12.4296 26.2389 27.2208 32.5079C27.7171 32.7171 28.2767 32.7166 28.773 32.5075C43.566 26.2381 44.5063 14.5298 43.9271 6.26814ZM28.0439 30.7895C28.0139 30.8003 27.9805 30.8003 27.9505 30.7895C14.4098 25.0501 13.3431 14.7452 13.9191 6.39508C20.2864 7.9322 25.8417 3.7567 27.9367 1.88699C27.9696 1.85615 28.0208 1.85615 28.0533 1.88699C30.1367 3.75371 35.6694 7.93423 42.0538 6.36169C42.6618 14.7224 41.596 25.041 28.0439 30.7895Z" fill="#404040"/>
<path d="M0.929378 56H7.61707C7.78083 56 7.94167 55.9566 8.08375 55.875L12.6014 53.2615L12.679 53.3961L12.6785 53.3957C12.9519 53.8653 13.3998 54.2074 13.9244 54.3474C14.4495 54.4874 15.0082 54.4137 15.4786 54.1424L19.103 52.0498C19.5726 51.7769 19.9147 51.329 20.0547 50.8039C20.1947 50.2793 20.1209 49.7206 19.8497 49.2498L19.7722 49.1152L21.8144 47.9355L32.5475 48.2809C33.7838 48.2843 34.9701 47.7942 35.8434 46.9192L45.7163 37.0889C46.3655 36.4326 46.7088 35.5334 46.6626 34.6117C46.6163 33.6896 46.185 32.8295 45.4737 32.2411C44.8191 31.737 44.0024 31.4911 43.1782 31.5494C42.3544 31.6082 41.5806 31.967 41.0039 32.5582L36.1662 37.3951C35.5637 36.6038 34.6219 36.1446 33.6273 36.1583H28.7522L26.0642 34.5454C24.8246 33.7987 20.5078 31.5278 17.0031 33.4803L12.3046 36.1925L12.2263 36.0571V36.0575C11.9533 35.588 11.505 35.2458 10.9804 35.1058C10.4558 34.9663 9.89659 35.0396 9.42618 35.3109L5.80269 37.4018C5.33435 37.676 4.99309 38.1239 4.8535 38.6481C4.7135 39.1727 4.78641 39.7311 5.056 40.2019L5.13351 40.3365L0.466683 43.0341V43.0336C0.177511 43.2003 -0.000415286 43.5091 7.27926e-07 43.8428V55.0667C7.27926e-07 55.5804 0.415011 55.9975 0.928778 56L0.929378 56ZM17.9241 35.1043C20.0054 33.9451 22.998 34.8831 25.1035 36.1469L28.0136 37.8932C28.159 37.9798 28.3253 38.0257 28.4944 38.0257H33.6234C34.3863 38.0511 35 38.6628 35.028 39.4257C35.028 40.1991 34.4013 40.8258 33.6279 40.8258H28.4944C27.979 40.8258 27.5611 41.2437 27.5611 41.7591C27.5611 42.2746 27.979 42.6925 28.4944 42.6925H33.6279C34.5121 42.6929 35.3585 42.3341 35.9726 41.6979C36.5863 41.0616 36.9155 40.2028 36.8834 39.3194L42.324 33.8797C42.8374 33.3284 43.6812 33.2459 44.2916 33.6876C44.5982 33.9389 44.7845 34.308 44.8049 34.7043C44.8253 35.1006 44.6778 35.4868 44.3991 35.7689L34.5304 45.6084C34.0149 46.1276 33.3149 46.4218 32.5832 46.4268L21.6111 46.073C21.4369 46.0659 21.2648 46.1092 21.1144 46.1972L18.8389 47.5068L13.2388 37.8072L17.9241 35.1043ZM6.74077 39.0133L10.363 36.9216H10.3634C10.4517 36.8828 10.5547 36.9111 10.6117 36.9886L18.2345 50.1944C18.2724 50.2823 18.2445 50.3853 18.167 50.4419L14.5448 52.5345C14.4573 52.5816 14.3481 52.552 14.2965 52.4674L6.67369 39.2648C6.63244 39.1757 6.66077 39.0698 6.74077 39.0127L6.74077 39.0133ZM1.86306 44.3785L6.06779 41.9517L11.668 51.6512L7.36992 54.1338H1.86306V44.3785Z" fill="#404040"/>
</svg>
