<svg width="61" height="56" viewBox="0 0 61 56" fill="none" xmlns="http://www.w3.org/2000/svg">
<path d="M14.4238 10.9939H28.019C28.2721 10.9939 28.4764 10.7897 28.4764 10.5365L28.4759 5.7389C28.4759 5.48579 28.2716 5.28149 28.0185 5.28149H14.4245C14.1714 5.28149 13.9671 5.48578 13.9671 5.7389V10.5365C13.9573 10.7897 14.1714 10.9939 14.4245 10.9939H14.4238ZM14.8812 6.19632H27.5508V10.0693H14.8812V6.19632Z" fill="black"/>
<path d="M14.4236 14.7993H47.1395C47.3926 14.7993 47.5969 14.5951 47.5969 14.3419C47.5969 14.0888 47.3926 13.8845 47.1395 13.8845H14.4236C14.1704 13.8845 13.9661 14.0888 13.9661 14.3419C13.9563 14.5852 14.1704 14.7993 14.4236 14.7993Z" fill="black"/>
<path d="M14.4232 19.7229H47.1392C47.3923 19.7229 47.5966 19.5186 47.5966 19.2655C47.5966 19.0124 47.3923 18.8081 47.1392 18.8081H14.4232C14.1701 18.8081 13.9658 19.0124 13.9658 19.2655C13.9658 19.5186 14.1701 19.7229 14.4232 19.7229Z" fill="black"/>
<path d="M40.8139 24.1901C40.8139 23.937 40.6096 23.7327 40.3565 23.7327H14.4232C14.1701 23.7327 13.9658 23.9369 13.9658 24.1901C13.9658 24.4432 14.1701 24.6475 14.4232 24.6475H40.3565C40.6096 24.6569 40.8139 24.4526 40.8139 24.1901Z" fill="black"/>
<path d="M40.3567 28.1995H21.2152C20.9621 28.1995 20.7578 28.4037 20.7578 28.6569C20.7578 28.91 20.9621 29.1143 21.2152 29.1143H40.3567C40.6098 29.1143 40.8141 28.91 40.8141 28.6569C40.8141 28.4038 40.6098 28.1995 40.3567 28.1995Z" fill="black"/>
<path d="M40.3567 32.655H21.2152C20.9621 32.655 20.7578 32.8593 20.7578 33.1124C20.7578 33.3656 20.9621 33.5698 21.2152 33.5698H40.3567C40.6098 33.5698 40.8141 33.3656 40.8141 33.1124C40.8141 32.8593 40.6098 32.655 40.3567 32.655Z" fill="black"/>
<path d="M40.3567 37.113H21.2152C20.9621 37.113 20.7578 37.3173 20.7578 37.5704C20.7578 37.8236 20.9621 38.0279 21.2152 38.0279H40.3567C40.6098 38.0279 40.8141 37.8236 40.8141 37.5704C40.8141 37.3267 40.6098 37.113 40.3567 37.113Z" fill="black"/>
<path d="M32.1047 41.5789H14.4232C14.1701 41.5789 13.9658 41.7831 13.9658 42.0363C13.9658 42.2894 14.1701 42.4937 14.4232 42.4937H32.1047C32.3578 42.4937 32.5621 42.2894 32.5621 42.0363C32.5621 41.7831 32.3578 41.5789 32.1047 41.5789Z" fill="black"/>
<path d="M47.1409 50.8046H43.7934C44.8444 49.7634 46.4303 47.8854 46.3528 46.2408C46.3429 45.9877 46.1387 45.7834 45.8663 45.8031C45.6132 45.8129 45.4187 46.0271 45.4286 46.2896C45.4868 47.4477 44.2902 48.9655 43.2876 49.9972C43.3655 49.0632 43.2974 47.8952 42.616 47.2335C42.0905 46.7272 41.3218 46.6206 40.3389 46.9123C39.0935 47.2917 38.227 47.9342 37.7602 48.8293C37.3709 49.5689 37.3517 50.2987 37.4099 50.8046H35.3178C35.0646 50.8046 34.8604 51.0088 34.8604 51.262C34.8604 51.5151 35.0646 51.7194 35.3178 51.7194H47.141C47.3941 51.7194 47.5984 51.5151 47.5984 51.262C47.5984 51.0088 47.3941 50.8046 47.141 50.8046H47.1409ZM38.5873 49.2576C38.9376 48.5959 39.6186 48.1094 40.6113 47.8079C41.2537 47.6134 41.7107 47.652 41.9835 47.9051C42.5579 48.4597 42.402 49.9874 42.2461 50.805H38.344C38.2853 50.4448 38.2759 49.8413 38.5873 49.2576L38.5873 49.2576Z" fill="black"/>
<path d="M51.1881 23.6257L45.5535 25.6108C45.3685 25.6789 45.2422 25.8541 45.2422 26.0485V31.7215C45.2422 34.5824 46.6727 36.2369 51.1294 38.5334C51.1974 38.5626 51.2655 38.5823 51.3435 38.5823C51.4214 38.5823 51.4895 38.563 51.5576 38.5334C56.0143 36.2468 57.4448 34.5924 57.4448 31.7215V26.0485C57.4448 25.8541 57.3185 25.6789 57.1335 25.6108L51.4989 23.6257C51.4022 23.5867 51.2951 23.5867 51.188 23.6257H51.1881ZM56.5206 26.3697V31.7121C56.5206 34.1353 55.3043 35.5268 51.3435 37.5899C47.3827 35.5268 46.1663 34.1353 46.1663 31.7121L46.1668 26.3697L51.3439 24.5499L56.5206 26.3697Z" fill="black"/>
<path d="M49.3004 30.7581C49.1153 30.5731 48.8237 30.5731 48.6485 30.7581C48.4635 30.9432 48.4635 31.2348 48.6485 31.41L50.0692 32.8306C50.1565 32.918 50.2735 32.9668 50.4002 32.9668C50.5172 32.9668 50.6337 32.918 50.7313 32.8306L54.8185 28.7435C55.0035 28.5585 55.0035 28.2668 54.8185 28.0917C54.6334 27.9066 54.3418 27.9066 54.1666 28.0917L50.4106 31.8477L49.3004 30.7581Z" fill="black"/>
<path d="M19.7379 43.8464C17.5678 43.8464 15.7969 45.6173 15.7969 47.7875C15.7969 49.9576 17.5678 51.7285 19.7379 51.7285C21.908 51.7285 23.6789 49.9576 23.6789 47.7875C23.6789 45.6075 21.908 43.8464 19.7379 43.8464ZM19.7379 50.8039C18.074 50.8039 16.721 49.4514 16.721 47.787C16.721 46.1231 18.0735 44.7701 19.7379 44.7701C21.4018 44.7701 22.7548 46.1227 22.7548 47.787C22.7543 49.4514 21.4018 50.8039 19.7379 50.8039Z" fill="black"/>
<path d="M52.2266 41.5247C57.9174 38.7307 61 36.2338 61 31.2998V23.2843C61 23.0863 60.8717 22.908 60.6839 22.8387L52.2266 19.8564V8.31276C52.2266 8.25346 52.2166 8.19371 52.1871 8.13441C52.1675 8.07511 52.1279 8.02539 52.0884 7.98571V7.97568L44.2634 0.138668H44.2534C44.2138 0.0989841 44.1647 0.0693342 44.1051 0.0396842C44.046 0.0200698 43.9864 0 43.9273 0H10.9572C10.0088 0 9.23823 0.772713 9.23823 1.72381V27.108H4.38715C4.09058 26.2062 3.25091 25.5526 2.25296 25.5526C1.00805 25.5526 0.000454861 26.5634 0.000454861 27.8114V36.1143C0.000454861 37.3627 1.00842 38.3731 2.25296 38.3731C3.25092 38.3731 4.08055 37.719 4.37714 36.8177H7.52882V53.7311C7.52882 54.2365 7.69666 54.6922 7.97322 55.0686H0.464416C0.207423 55.0686 0 55.2765 0 55.5343C0 55.792 0.207411 56 0.464416 56H60.516C60.773 56 60.9804 55.792 60.9804 55.5343C60.9804 55.2765 60.773 55.0686 60.516 55.0686H52.0192C52.1379 54.8309 52.2166 54.5631 52.2166 54.2858V41.5248L52.2266 41.5247ZM60.0516 31.2993C60.0516 35.7878 57.2555 38.0069 51.7522 40.7118C46.2488 38.0069 43.4529 35.7877 43.4529 31.2993V23.6105L51.7522 20.6875L60.0516 23.6105V31.2993ZM44.4014 1.605L50.6257 7.8373H45.1915C44.7566 7.8373 44.411 7.4806 44.411 7.05456V1.60498L44.4014 1.605ZM2.25318 37.4322C1.53177 37.4322 0.939106 36.8379 0.939106 36.1144V27.8116C0.939106 27.0882 1.53178 26.4938 2.25318 26.4938C2.97459 26.4938 3.56726 27.0882 3.56726 27.8116V36.1144C3.57726 36.8379 2.98413 37.4322 2.25318 37.4322ZM4.5157 28.0492H15.1172V35.8767H4.5157V28.0492ZM8.47749 53.7405V36.847H11.1548V53.7405C11.1548 54.4836 10.5521 55.078 9.82114 55.078C9.07062 55.078 8.47749 54.4736 8.47749 53.7405ZM11.6392 55.078C11.9157 54.7016 12.0836 54.2359 12.0836 53.7405L12.084 36.8178H15.2357C15.5323 37.7196 16.372 38.3732 17.3699 38.3732C18.6148 38.3732 19.6224 37.3624 19.6224 36.1143V27.8115C19.6224 26.5631 18.6145 25.5526 17.3699 25.5526C16.372 25.5526 15.5323 26.2068 15.2357 27.1081H10.1773L10.1768 1.72387C10.1768 1.28779 10.5325 0.941127 10.9573 0.941127H43.4628V7.05444C43.4628 8.0055 44.2334 8.77825 45.1818 8.77825H51.2779V19.8553L42.8206 22.8375C42.6328 22.9069 42.5045 23.0852 42.5045 23.2832V31.2986C42.5045 36.2328 45.5871 38.7297 51.2779 41.5235V54.295C51.2779 54.7311 50.9222 55.0778 50.4974 55.0778L11.6392 55.078ZM17.37 26.493C18.0914 26.493 18.6841 27.0874 18.6841 27.8108V36.1136C18.6841 36.8371 18.0914 37.4314 17.37 37.4314C16.6486 37.4314 16.0559 36.837 16.0559 36.1136V27.8108C16.0459 27.0874 16.6386 26.493 17.37 26.493Z" fill="black"/>
</svg>
